External Loads File
version=1
nRows=85
nColumns=13
Range=5.000000e-03-10 seconds
endheader
time 	forceRightX 	forceRightY 	forceRightZ 	pointRightX 	pointRightY 	pointRightZ 	forceLeftX 	forceLeftY 	forceLeftZ 	pointLeftX 	pointLeftY 	pointLeftZ 		
7.505000 68.581770 48.090859 -0.000000 0.084349 0.450995 -0.104378 -79.320844 689.340529 -0.000000 0.261815 0.186512 -0.345740
7.510000 55.549717 39.475588 -0.000000 0.093156 0.458261 -0.104673 -50.313899 689.184823 -0.000000 0.253863 0.179245 -0.345582
7.515000 40.474146 30.297935 -0.000000 0.102090 0.464826 -0.104981 -22.684050 685.302164 -0.000000 0.245518 0.172572 -0.345429
7.520000 23.743042 20.721663 -0.000000 0.111818 0.471111 -0.104954 4.774755 677.523022 -0.000000 0.236889 0.166434 -0.345599
7.525000 5.760975 11.087381 -0.000000 0.121531 0.476763 -0.105452 29.927670 665.712193 -0.000000 0.228051 0.161028 -0.345440
7.530000 -12.817911 1.582971 -0.000000 0.131623 0.481850 -0.105660 54.481400 649.874715 -0.000000 0.218417 0.156202 -0.346208
7.535000 -31.291458 -7.587776 -0.000000 0.141938 0.486408 -0.105872 75.776599 630.449514 -0.000000 0.209444 0.151985 -0.345340
7.540000 -48.862881 -16.140216 -0.000000 0.152052 0.490213 -0.106236 95.245344 607.791550 -0.000000 0.199762 0.148457 -0.345336
7.545000 -64.790570 -23.744823 -0.000000 0.162148 0.493540 -0.106468 112.735672 582.460117 -0.000000 0.189793 0.145592 -0.345228
7.550000 -78.430260 -30.132552 -0.000000 0.172111 0.496182 -0.106667 127.735008 555.126486 -0.000000 0.179742 0.143394 -0.345141
7.555000 -89.310937 -35.025436 -0.000000 0.181962 0.498147 -0.106977 140.226932 526.311493 -0.000000 0.169729 0.141922 -0.344963
7.560000 -97.145626 -38.224922 -0.000000 0.191525 0.499493 -0.107017 150.018741 496.427237 -0.000000 0.159764 0.141200 -0.344742
7.565000 -101.906129 -39.500145 -0.000000 0.201024 0.500228 -0.107208 157.347229 465.587476 -0.000000 0.150008 0.141186 -0.344473
7.570000 -103.754391 -38.686489 -0.000000 0.210138 0.500242 -0.107240 162.062539 433.890393 -0.000000 0.140346 0.141867 -0.344161
7.575000 -103.078608 -35.487559 -0.000000 0.219027 0.499631 -0.107188 164.504081 401.220515 -0.000000 0.130784 0.143250 -0.343856
7.580000 -100.363862 -29.843824 -0.000000 0.227484 0.498275 -0.107140 164.278935 367.810373 -0.000000 0.121686 0.145338 -0.343380
7.585000 -96.291334 -21.673700 -0.000000 0.235391 0.496225 -0.107044 161.784747 333.750110 -0.000000 0.112808 0.148142 -0.343058
7.590000 -91.603432 -11.138780 -0.000000 0.242916 0.493525 -0.106848 157.364738 299.357856 -0.000000 0.104217 0.151524 -0.342758
7.595000 -87.050854 1.371038 -0.000000 0.249934 0.490137 -0.106523 151.254058 265.229976 -0.000000 0.096020 0.155691 -0.342484
7.600000 -83.324546 15.535325 -0.000000 0.256585 0.485857 -0.106188 144.107904 231.889281 -0.000000 0.088031 0.160523 -0.342185
7.605000 -80.997120 30.930873 -0.000000 0.262815 0.480756 -0.105784 136.039433 200.247308 -0.000000 0.080504 0.165713 -0.341862
7.610000 -80.454403 47.496392 -0.000000 0.268703 0.474768 -0.105249 127.705141 170.880863 -0.000000 0.073312 0.171576 -0.341697
7.615000 -81.983546 65.208022 -0.000000 0.274098 0.468195 -0.104912 119.366798 144.539005 -0.000000 0.066503 0.178028 -0.341486
7.620000 -85.741967 84.274031 -0.000000 0.279163 0.461080 -0.104528 111.429219 121.724681 -0.000000 0.060079 0.184798 -0.341429
7.625000 -91.846114 104.969164 -0.000000 0.283680 0.453785 -0.104293 104.232295 102.855940 -0.000000 0.053958 0.192037 -0.341258
7.630000 -100.055592 127.787326 -0.000000 0.288039 0.445653 -0.104134 98.388571 87.931772 -0.000000 0.048191 0.199677 -0.341244
7.635000 -110.286873 152.835132 -0.000000 0.291890 0.437004 -0.103882 94.177275 76.993613 -0.000000 0.042727 0.207804 -0.341097
7.640000 -122.056864 180.207770 -0.000000 0.295451 0.427273 -0.103731 91.963966 69.552201 -0.000000 0.037667 0.216172 -0.341090
7.645000 -134.865001 209.616226 -0.000000 0.298907 0.417203 -0.103658 91.845326 64.973824 -0.000000 0.032974 0.225152 -0.341032
7.650000 -148.356400 240.334074 -0.000000 0.302024 0.406720 -0.103364 93.664092 62.597254 -0.000000 0.028732 0.234315 -0.341058
7.655000 -161.525136 271.829937 -0.000000 0.304951 0.395979 -0.103270 97.220087 61.536626 -0.000000 0.024948 0.244069 -0.341058
7.660000 -174.272225 303.008795 -0.000000 0.307431 0.385075 -0.103048 101.895434 61.391383 -0.000000 0.021689 0.253809 -0.341073
7.665000 -185.530890 333.539810 -0.000000 0.309683 0.373989 -0.103205 107.214850 61.595973 -0.000000 0.019120 0.263992 -0.341084
7.670000 -195.268485 362.770786 -0.000000 0.311745 0.362873 -0.103377 112.526593 62.142171 -0.000000 0.017152 0.274236 -0.341082
7.675000 -203.270599 390.396618 -0.000000 0.313092 0.351769 -0.103330 117.356172 63.117374 -0.000000 0.015910 0.284635 -0.341018
7.680000 -208.908386 416.436575 -0.000000 0.314059 0.340604 -0.103201 121.467812 64.572144 -0.000000 0.015365 0.295129 -0.341072
7.685000 -211.866895 440.761051 -0.000000 0.314405 0.329401 -0.103007 124.748863 66.662161 -0.000000 0.015522 0.305646 -0.341073
7.690000 -211.692657 463.340467 -0.000000 0.314218 0.318192 -0.102861 127.262304 69.436065 -0.000000 0.016320 0.316215 -0.341183
7.695000 -208.476417 484.003506 -0.000000 0.313527 0.307043 -0.102638 129.109275 72.957191 -0.000000 0.017856 0.326704 -0.341209
7.700000 -202.290349 502.759026 -0.000000 0.312187 0.295962 -0.102538 130.475614 77.094004 -0.000000 0.020030 0.337044 -0.341352
7.705000 -194.122683 519.367979 -0.000000 0.310482 0.285025 -0.102244 131.429264 81.733253 -0.000000 0.022860 0.346839 -0.341347
7.710000 -182.804349 534.434608 -0.000000 0.308001 0.274445 -0.103236 132.313824 85.988965 -0.000000 0.026375 0.356938 -0.341622
7.715000 -169.364453 547.692145 -0.000000 0.305048 0.264078 -0.102799 132.988758 89.376215 -0.000000 0.030752 0.366637 -0.341736
7.720000 -153.819653 559.251531 -0.000000 0.301525 0.253940 -0.102894 133.287127 91.115075 -0.000000 0.035756 0.376077 -0.342277
7.725000 -135.858669 569.248440 -0.000000 0.297439 0.244103 -0.103150 132.925215 90.450667 -0.000000 0.041312 0.385657 -0.342235
7.730000 -116.271958 577.468833 -0.000000 0.292809 0.234392 -0.103366 131.340125 87.083843 -0.000000 0.047414 0.394871 -0.342215
7.735000 -95.445948 583.783409 -0.000000 0.287654 0.225201 -0.103348 128.024985 80.832932 -0.000000 0.054284 0.403813 -0.342298
7.740000 -73.709425 587.997749 -0.000000 0.282124 0.216316 -0.103369 122.513602 71.683332 -0.000000 0.061663 0.412482 -0.342293
7.745000 -49.989616 589.943327 -0.000000 0.275983 0.207785 -0.103447 114.534878 59.489710 -0.000000 0.070212 0.420818 -0.343304
7.750000 -27.059969 588.979087 -0.000000 0.269403 0.199543 -0.103406 103.485311 45.001653 -0.000000 0.078580 0.428638 -0.343214
7.755000 -4.205828 584.849019 -0.000000 0.262309 0.191983 -0.103397 89.324289 28.333895 -0.000000 0.087375 0.436196 -0.343190
7.760000 16.967950 577.292875 -0.000000 0.254815 0.184842 -0.103354 72.026697 10.043993 -0.000000 0.096002 0.443121 -0.342296
7.765000 38.435573 566.197888 -0.000000 0.246942 0.178318 -0.103267 51.839923 -9.727411 -0.000000 0.105690 0.449533 -0.342184
7.770000 58.630194 551.709746 -0.000000 0.238737 0.172376 -0.103249 29.059110 -30.244362 -0.000000 0.115639 0.455465 -0.342327
7.775000 77.909205 534.115091 -0.000000 0.229927 0.166994 -0.102811 4.199109 -50.899587 -0.000000 0.125820 0.460938 -0.342587
7.780000 94.949479 514.111889 -0.000000 0.221036 0.162319 -0.102686 -21.857729 -71.003469 -0.000000 0.136109 0.465864 -0.342619
7.785000 109.714642 492.391287 -0.000000 0.211922 0.158198 -0.102506 -48.064450 -89.971794 -0.000000 0.146122 0.470317 -0.343216
7.790000 122.728670 469.466455 -0.000000 0.202450 0.154695 -0.102360 -73.400115 -107.123811 -0.000000 0.156074 0.474432 -0.342804
7.795000 134.085286 445.774047 -0.000000 0.192807 0.151879 -0.102264 -96.844480 -121.727951 -0.000000 0.166120 0.477959 -0.342756
7.800000 143.779010 421.576456 -0.000000 0.182913 0.149708 -0.102192 -117.505611 -133.065875 -0.000000 0.176172 0.481003 -0.342570
7.805000 151.355136 397.076681 -0.000000 0.173001 0.148178 -0.102130 -134.545261 -140.630020 -0.000000 0.186116 0.483519 -0.342515
7.810000 156.733288 372.177104 -0.000000 0.163154 0.147340 -0.102148 -147.418793 -143.982268 -0.000000 0.195973 0.485255 -0.342195
7.815000 159.814184 346.639912 -0.000000 0.153415 0.147176 -0.102130 -155.769214 -142.894280 -0.000000 0.205666 0.486357 -0.342211
7.820000 160.343982 320.246972 -0.000000 0.143995 0.147731 -0.101948 -159.398840 -137.519656 -0.000000 0.215054 0.486695 -0.342459
7.825000 158.776008 292.490304 -0.000000 0.134464 0.149012 -0.102223 -158.715105 -128.036280 -0.000000 0.224128 0.486320 -0.342671
7.830000 154.828669 263.396316 -0.000000 0.125331 0.151024 -0.102332 -154.181019 -115.291887 -0.000000 0.232863 0.485386 -0.342953
7.835000 148.794425 232.951506 -0.000000 0.116522 0.153830 -0.102386 -146.835923 -99.982824 -0.000000 0.241192 0.483800 -0.343334
7.840000 140.948543 201.421127 -0.000000 0.108085 0.157246 -0.102443 -137.886207 -82.780889 -0.000000 0.249190 0.481345 -0.343674
7.845000 131.500689 169.394201 -0.000000 0.099968 0.161384 -0.102547 -128.516134 -64.313793 -0.000000 0.256709 0.478311 -0.344048
7.850000 120.899486 137.522091 -0.000000 0.092178 0.166178 -0.102643 -119.864333 -44.954822 -0.000000 0.263948 0.474583 -0.344700
7.855000 109.668793 106.502641 -0.000000 0.084073 0.171670 -0.103001 -112.794463 -24.920229 -0.000000 0.270729 0.469893 -0.345348
7.860000 97.700251 77.778151 -0.000000 0.077424 0.177651 -0.102735 -107.700289 -5.104445 -0.000000 0.277015 0.464653 -0.345826
7.865000 85.889433 51.778371 -0.000000 0.070522 0.184097 -0.102759 -104.947611 14.676200 -0.000000 0.282814 0.458847 -0.346412
7.870000 74.559068 29.376308 -0.000000 0.063898 0.191060 -0.102968 -104.570606 34.183354 -0.000000 0.287965 0.452404 -0.346784
7.875000 64.116774 11.135665 -0.000000 0.057911 0.198439 -0.103203 -106.588362 53.489169 -0.000000 0.292566 0.445490 -0.346926
7.880000 54.939473 -2.785928 -0.000000 0.052152 0.206125 -0.103122 -110.951857 73.145074 -0.000000 0.296679 0.438114 -0.347002
7.885000 47.267346 -12.410388 -0.000000 0.047074 0.214191 -0.102568 -117.703934 93.782096 -0.000000 0.300400 0.430298 -0.346977
7.890000 41.214120 -18.095147 -0.000000 0.042013 0.222773 -0.102489 -126.720430 116.356652 -0.000000 0.303427 0.421848 -0.347126
7.895000 36.799091 -20.268833 -0.000000 0.037381 0.231575 -0.102373 -137.935558 141.574912 -0.000000 0.306252 0.412681 -0.347218
7.900000 33.957213 -19.474001 -0.000000 0.033152 0.240805 -0.102310 -151.162659 169.900627 -0.000000 0.308642 0.402973 -0.347445
7.905000 32.540415 -16.333690 -0.000000 0.029343 0.250431 -0.102302 -165.937735 201.508506 -0.000000 0.310712 0.392658 -0.347694
7.910000 32.376536 -11.424531 -0.000000 0.026022 0.260325 -0.102282 -181.778844 236.021468 -0.000000 0.312575 0.381914 -0.347971
7.915000 33.292932 -5.238084 -0.000000 0.023126 0.270513 -0.102297 -198.000658 272.760700 -0.000000 0.314125 0.370885 -0.348052
7.920000 35.179672 1.905637 -0.000000 0.020883 0.280860 -0.102323 -214.120167 310.603750 -0.000000 0.315356 0.359815 -0.348210
7.925000 37.991853 9.771996 -0.000000 0.019151 0.291405 -0.102452 -229.288452 348.632167 -0.000000 0.316260 0.348713 -0.348577
